{
  "accessors": [
    {
      "bufferView": 0,
      "componentType": 5126,
      "count": 824,
      "max": [
        0.15143439173698425,
        0.48260000348091125,
        0.15143442153930664
      ],
      "min": [
        -0.15143439173698425,
        3.3861802251067274e-15,
        -0.15143437683582306
      ],
      "name": "Point/POSITION",
      "type": "VEC3"
    },
    {
      "bufferView": 0,
      "byteOffset": 12,
      "componentType": 5126,
      "count": 824,
      "name": "Point/NORMAL",
      "type": "VEC3"
    },
    {
      "bufferView": 0,
      "byteOffset": 24,
      "componentType": 5126,
      "count": 824,
      "name": "Point/TEXCOORD_0",
      "type": "VEC2"
    },
    {
      "bufferView": 1,
      "componentType": 5125,
      "count": 4176,
      "name": "Point/INDICES",
      "type": "SCALAR"
    }
  ],
  "asset": {
    "copyright": "Copyright (c) 2018-2020 Chukong Technologies Inc.",
    "generator": "FBX-glTF-conv",
    "version": "2.0"
  },
  "bufferViews": [
    {
      "buffer": 0,
      "byteLength": 26368,
      "byteStride": 32,
      "name": "Point",
      "target": 34962
    },
    {
      "buffer": 0,
      "byteLength": 16704,
      "byteOffset": 26368
    }
  ],
  "buffers": [
    {
      "byteLength": 43072,
      "uri": "out.bin"
    }
  ],
  "extras": {
    "FBX-glTF-conv": {
      "animationFrameRate": 30.0
    }
  },
  "images": [
    {
      "extras": {
        "FBX-glTF-conv": {
          "fileName": "E:\\GitHub\\HelloTK\\temp\\asset-db\\assets\\fbx.FBX-glTF-conv\\40f199b6-04f2-41d8-94cb-d0609cb928f6\\output\\.fbm\\4895101E\\point.fbm/stone1.png",
          "relativeFileName": "..\\..\\temp\\asset-db\\assets\\fbx.FBX-glTF-conv\\40f199b6-04f2-41d8-94cb-d0609cb928f6\\output\\.fbm\\4895101E\\point.fbm\\stone1.png"
        }
      },
      "name": "贴图 #7",
      "uri": "stone1.png"
    }
  ],
  "materials": [
    {
      "name": "07 - Default",
      "pbrMetallicRoughness": {
        "baseColorTexture": {
          "index": 0
        },
        "metallicFactor": 0.4000000059604645,
        "roughnessFactor": 0.7071067690849304
      }
    }
  ],
  "meshes": [
    {
      "name": "Point",
      "primitives": [
        {
          "attributes": {
            "NORMAL": 1,
            "POSITION": 0,
            "TEXCOORD_0": 2
          },
          "indices": 3,
          "material": 0
        }
      ]
    }
  ],
  "nodes": [
    {
      "mesh": 0,
      "name": "Point"
    }
  ],
  "samplers": [
    {}
  ],
  "scenes": [
    {
      "nodes": [
        0
      ]
    }
  ],
  "textures": [
    {
      "name": "贴图 #7",
      "sampler": 0,
      "source": 0
    }
  ]
}