{
  "accessors": [
    {
      "bufferView": 0,
      "componentType": 5126,
      "count": 1436,
      "max": [
        7.9612298011779785,
        10.364731788635254,
        7.790527820587158
      ],
      "min": [
        -7.9612298011779785,
        -4.591344356536865,
        -0.612991213798523
      ],
      "name": "default045/POSITION",
      "type": "VEC3"
    },
    {
      "bufferView": 0,
      "byteOffset": 12,
      "componentType": 5126,
      "count": 1436,
      "name": "default045/NORMAL",
      "type": "VEC3"
    },
    {
      "bufferView": 0,
      "byteOffset": 24,
      "componentType": 5126,
      "count": 1436,
      "name": "default045/TEXCOORD_0",
      "type": "VEC2"
    },
    {
      "bufferView": 1,
      "componentType": 5125,
      "count": 5844,
      "name": "default045/INDICES",
      "type": "SCALAR"
    }
  ],
  "asset": {
    "copyright": "Copyright (c) 2018-2020 Chukong Technologies Inc.",
    "generator": "FBX-glTF-conv",
    "version": "2.0"
  },
  "bufferViews": [
    {
      "buffer": 0,
      "byteLength": 45952,
      "byteStride": 32,
      "name": "default045",
      "target": 34962
    },
    {
      "buffer": 0,
      "byteLength": 23376,
      "byteOffset": 45952
    }
  ],
  "buffers": [
    {
      "byteLength": 69328,
      "uri": "out.bin"
    }
  ],
  "extras": {
    "FBX-glTF-conv": {
      "animationFrameRate": 30.0
    }
  },
  "images": [
    {
      "extras": {
        "FBX-glTF-conv": {
          "fileName": "E:\\GitHub\\HelloTK\\temp\\asset-db\\assets\\fbx.FBX-glTF-conv\\0a304cbc-4ec3-4d5e-b3dc-2ff375e14f17\\output\\.fbm\\873F16CA\\ghost_dragon.fbm/44.png",
          "relativeFileName": "..\\..\\..\\temp\\asset-db\\assets\\fbx.FBX-glTF-conv\\0a304cbc-4ec3-4d5e-b3dc-2ff375e14f17\\output\\.fbm\\873F16CA\\ghost_dragon.fbm\\44.png"
        }
      },
      "name": "Map #51",
      "uri": "44.png"
    }
  ],
  "materials": [
    {
      "name": "Material #105",
      "pbrMetallicRoughness": {
        "baseColorTexture": {
          "index": 0
        },
        "metallicFactor": 0.4000000059604645,
        "roughnessFactor": 0.7071067690849304
      }
    }
  ],
  "meshes": [
    {
      "name": "default045",
      "primitives": [
        {
          "attributes": {
            "NORMAL": 1,
            "POSITION": 0,
            "TEXCOORD_0": 2
          },
          "indices": 3,
          "material": 0
        }
      ]
    }
  ],
  "nodes": [
    {
      "mesh": 0,
      "name": "default045",
      "rotation": [
        -0.7071067690849304,
        -0.0,
        0.0,
        0.7071067690849304
      ],
      "translation": [
        7.8675618171691895,
        19.047218322753906,
        0.10755852609872818
      ]
    }
  ],
  "samplers": [
    {}
  ],
  "scenes": [
    {
      "nodes": [
        0
      ]
    }
  ],
  "textures": [
    {
      "name": "Map #51",
      "sampler": 0,
      "source": 0
    }
  ]
}