{
  "accessors": [
    {
      "bufferView": 0,
      "componentType": 5126,
      "count": 2304,
      "max": [
        1.285900592803955,
        0.2934509813785553,
        1.6460821628570557
      ],
      "min": [
        -1.285900592803955,
        -0.9117328524589539,
        -0.006696087308228016
      ],
      "name": "default023/POSITION",
      "type": "VEC3"
    },
    {
      "bufferView": 0,
      "byteOffset": 12,
      "componentType": 5126,
      "count": 2304,
      "name": "default023/NORMAL",
      "type": "VEC3"
    },
    {
      "bufferView": 0,
      "byteOffset": 24,
      "componentType": 5126,
      "count": 2304,
      "name": "default023/TEXCOORD_0",
      "type": "VEC2"
    },
    {
      "bufferView": 1,
      "componentType": 5125,
      "count": 2856,
      "name": "default023/INDICES",
      "type": "SCALAR"
    }
  ],
  "asset": {
    "copyright": "Copyright (c) 2018-2020 Chukong Technologies Inc.",
    "generator": "FBX-glTF-conv",
    "version": "2.0"
  },
  "bufferViews": [
    {
      "buffer": 0,
      "byteLength": 73728,
      "byteStride": 32,
      "name": "default023",
      "target": 34962
    },
    {
      "buffer": 0,
      "byteLength": 11424,
      "byteOffset": 73728
    }
  ],
  "buffers": [
    {
      "byteLength": 85152,
      "uri": "out.bin"
    }
  ],
  "extras": {
    "FBX-glTF-conv": {
      "animationFrameRate": 30.0
    }
  },
  "images": [
    {
      "extras": {
        "FBX-glTF-conv": {
          "fileName": "E:\\GitHub\\HelloTK\\temp\\asset-db\\assets\\fbx.FBX-glTF-conv\\fa6d1e2e-32a0-483b-91e6-c13c955fcc92\\output\\.fbm\\EEC913DF\\dryad.fbm/24.png",
          "relativeFileName": "..\\..\\..\\temp\\asset-db\\assets\\fbx.FBX-glTF-conv\\fa6d1e2e-32a0-483b-91e6-c13c955fcc92\\output\\.fbm\\EEC913DF\\dryad.fbm\\24.png"
        }
      },
      "name": "Map #29",
      "uri": "24.png"
    }
  ],
  "materials": [
    {
      "name": "Material #63",
      "pbrMetallicRoughness": {
        "baseColorTexture": {
          "index": 0
        },
        "metallicFactor": 0.4000000059604645,
        "roughnessFactor": 0.7071067690849304
      }
    }
  ],
  "meshes": [
    {
      "name": "default023",
      "primitives": [
        {
          "attributes": {
            "NORMAL": 1,
            "POSITION": 0,
            "TEXCOORD_0": 2
          },
          "indices": 3,
          "material": 0
        }
      ]
    }
  ],
  "nodes": [
    {
      "mesh": 0,
      "name": "default023",
      "rotation": [
        -0.7071067690849304,
        -0.0,
        0.0,
        0.7071067690849304
      ],
      "scale": [
        1.483929991722107,
        1.483929991722107,
        1.483929991722107
      ],
      "translation": [
        24.49176597595215,
        -3.5867788791656494,
        0.1256018877029419
      ]
    }
  ],
  "samplers": [
    {}
  ],
  "scenes": [
    {
      "nodes": [
        0
      ]
    }
  ],
  "textures": [
    {
      "name": "Map #29",
      "sampler": 0,
      "source": 0
    }
  ]
}